<svg xmlns="http://www.w3.org/2000/svg" width="1440" height="900" viewBox="0 0 1440 900" fill="none" role="img" aria-labelledby="title description">
  <title id="title">Ledgerly invoice editor</title>
  <desc id="description">Ledgerly's invoice editor with invoice details, line items, and a live invoice preview.</desc>
  <defs>
    <filter id="shadow" x="-10%" y="-10%" width="120%" height="130%">
      <feDropShadow dx="0" dy="16" stdDeviation="22" flood-color="#24382f" flood-opacity=".12"/>
    </filter>
    <style>
      .ui { font-family: Inter, ui-sans-serif, system-ui, -apple-system, BlinkMacSystemFont, "Segoe UI", sans-serif; }
      .muted { fill: #708078; font-size: 14px; }
      .label { fill: #536159; font-size: 12px; font-weight: 700; letter-spacing: .06em; }
      .field { fill: #27352e; font-size: 15px; }
      .nav { fill: #58675f; font-size: 15px; }
    </style>
  </defs>
  <rect width="1440" height="900" fill="#eef1ed"/>
  <rect x="38" y="34" width="1364" height="832" rx="18" fill="#fbfcfa" filter="url(#shadow)"/>
  <path d="M56 52h218v796H56a18 18 0 0 1-18-18V70a18 18 0 0 1 18-18Z" fill="#f8f9f6"/>
  <path d="M274 52h1110a18 18 0 0 1 18 18v58H274V52Z" fill="#fff"/>
  <path d="M274 128h1128" stroke="#e4e8e2"/>
  <g class="ui">
    <rect x="66" y="78" width="30" height="30" rx="8" fill="#2c5847"/>
    <path d="M77 86v14h10" stroke="#fff" stroke-width="3" stroke-linecap="round" stroke-linejoin="round"/>
    <text x="108" y="100" fill="#26342d" font-size="23" font-weight="750">Ledgerly</text>
    <rect x="62" y="132" width="190" height="64" rx="10" fill="#fff" stroke="#e6e9e5"/>
    <rect x="74" y="145" width="38" height="38" rx="9" fill="#e6ece6"/>
    <text x="86" y="169" fill="#647168" font-size="12" font-weight="750">MB</text>
    <text x="124" y="157" fill="#29362f" font-size="13" font-weight="700">My business</text>
    <text x="124" y="177" fill="#738078" font-size="11">Private workspace</text>
    <rect x="62" y="214" width="190" height="44" rx="7" fill="#2c5847"/>
    <text x="84" y="242" fill="#fff" font-size="15" font-weight="650">+  New invoice</text>
    <rect x="62" y="286" width="190" height="42" rx="7" fill="#e9eee8"/>
    <text x="84" y="313" class="nav" font-weight="700">Overview</text>
    <text x="84" y="356" class="nav">Invoices</text>
    <text x="84" y="399" class="nav">Clients</text>
    <text x="84" y="442" class="nav">Products &amp; services</text>
    <text x="84" y="485" class="nav">Payments</text>
    <text x="84" y="528" class="nav">Reports</text>
    <text x="84" y="786" class="nav">Settings</text>
    <text x="84" y="824" class="nav">Help &amp; support</text>

    <text x="314" y="94" class="muted">Invoices</text>
    <text x="376" y="94" class="muted">/</text>
    <text x="394" y="94" fill="#36433c" font-size="14">New invoice</text>
    <text x="1110" y="94" class="muted">Search invoices or clients</text>
    <text x="314" y="162" class="muted">← Back to invoices</text>
    <circle cx="469" cy="158" r="4" fill="#d89c36"/>
    <text x="482" y="162" class="muted">Unsaved changes</text>
    <rect x="1066" y="140" width="124" height="42" rx="8" fill="#fff" stroke="#dfe5de"/>
    <text x="1090" y="166" fill="#425249" font-size="14" font-weight="650">Save draft</text>
    <rect x="1200" y="140" width="162" height="42" rx="8" fill="#2c5847"/>
    <text x="1222" y="166" fill="#fff" font-size="14" font-weight="700">Finalize invoice</text>

    <text x="314" y="229" fill="#2a3730" font-size="31" font-weight="750">Draft 1</text>
    <path d="M314 253h548" stroke="#e3e8e2"/>
    <text x="314" y="292" fill="#34423a" font-size="17" font-weight="750">Invoice details</text>
    <text x="314" y="326" class="label">CLIENT</text>
    <rect x="314" y="338" width="548" height="49" rx="7" fill="#fff" stroke="#dce3db"/>
    <text x="332" y="369" class="field">Example Client</text>
    <text x="824" y="369" class="muted">⌄</text>
    <text x="314" y="425" class="label">ISSUE DATE</text>
    <text x="604" y="425" class="label">DUE DATE</text>
    <rect x="314" y="438" width="258" height="48" rx="7" fill="#fff" stroke="#dce3db"/>
    <rect x="604" y="438" width="258" height="48" rx="7" fill="#fff" stroke="#dce3db"/>
    <text x="332" y="469" class="field">17/09/2026</text>
    <text x="622" y="469" class="field">01/10/2026</text>
    <text x="314" y="524" class="label">CURRENCY</text>
    <text x="604" y="524" class="label">INVOICE LANGUAGE</text>
    <rect x="314" y="537" width="258" height="48" rx="7" fill="#fff" stroke="#dce3db"/>
    <rect x="604" y="537" width="258" height="48" rx="7" fill="#fff" stroke="#dce3db"/>
    <text x="332" y="568" class="field">EUR</text>
    <text x="622" y="568" class="field">English</text>

    <path d="M314 620h548" stroke="#e3e8e2"/>
    <text x="314" y="657" fill="#34423a" font-size="17" font-weight="750">Line items</text>
    <text x="750" y="657" fill="#2c5847" font-size="14" font-weight="650">Add from catalog</text>
    <rect x="314" y="678" width="548" height="47" rx="7" fill="#fff" stroke="#dce3db"/>
    <text x="332" y="708" class="field">Design retainer</text>
    <text x="314" y="757" class="label">QUANTITY</text>
    <text x="457" y="757" class="label">UNIT PRICE</text>
    <text x="640" y="757" class="label">TAX RATE</text>
    <text x="790" y="757" class="label">AMOUNT</text>
    <rect x="314" y="769" width="116" height="48" rx="7" fill="#fff" stroke="#dce3db"/>
    <rect x="457" y="769" width="154" height="48" rx="7" fill="#fff" stroke="#dce3db"/>
    <rect x="640" y="769" width="120" height="48" rx="7" fill="#fff" stroke="#dce3db"/>
    <text x="332" y="800" class="field">1</text>
    <text x="475" y="800" class="field">€ 1,200.00</text>
    <text x="658" y="800" class="field">19%</text>
    <text x="790" y="800" fill="#314037" font-size="15" font-weight="700">€ 1,200.00</text>

    <path d="M892 128h510v720H892z" fill="#f0f2ee"/>
    <text x="920" y="162" class="muted">Live preview</text>
    <text x="1328" y="162" class="muted">Draft 1</text>
    <rect x="922" y="184" width="450" height="598" rx="5" fill="#fff" stroke="#e6e9e5"/>
    <rect x="950" y="215" width="29" height="29" rx="8" fill="#2c5847"/>
    <path d="M961 223v13h9" stroke="#fff" stroke-width="3" stroke-linecap="round" stroke-linejoin="round"/>
    <text x="990" y="237" fill="#29362f" font-size="14" font-weight="750">My business</text>
    <text x="1250" y="242" fill="#27352e" font-size="27" font-weight="800">INVOICE</text>
    <path d="M950 275h392" stroke="#e5e8e3"/>
    <text x="950" y="311" class="label">BILL TO</text>
    <text x="950" y="336" fill="#334138" font-size="14" font-weight="700">Example Client</text>
    <text x="1156" y="311" class="label">INVOICE NUMBER</text>
    <text x="1268" y="336" fill="#334138" font-size="14" font-weight="700">Draft 1</text>
    <text x="1156" y="366" class="muted">Issue date</text>
    <text x="1268" y="366" fill="#435148" font-size="13" font-weight="650">17/09/2026</text>
    <text x="1156" y="387" class="muted">Due date</text>
    <text x="1268" y="387" fill="#435148" font-size="13" font-weight="650">01/10/2026</text>
    <rect x="950" y="417" width="392" height="33" fill="#f0f1ed"/>
    <text x="962" y="438" class="label">DESCRIPTION</text>
    <text x="1137" y="438" class="label">QTY</text>
    <text x="1198" y="438" class="label">RATE</text>
    <text x="1262" y="438" class="label">TAX</text>
    <text x="1308" y="438" class="label">AMOUNT</text>
    <text x="962" y="480" fill="#354238" font-size="14">Design retainer</text>
    <text x="1142" y="480" fill="#354238" font-size="14">1</text>
    <text x="1185" y="480" fill="#354238" font-size="14">€ 1,200.00</text>
    <text x="1263" y="480" fill="#354238" font-size="14">19%</text>
    <text x="1298" y="480" fill="#354238" font-size="14">€ 1,200.00</text>
    <path d="M950 501h392" stroke="#e7eae6"/>
    <text x="1124" y="532" class="muted">Subtotal</text>
    <text x="1281" y="532" fill="#344239" font-size="13" font-weight="650">€ 1,200.00</text>
    <text x="1124" y="556" class="muted">Tax</text>
    <text x="1296" y="556" fill="#344239" font-size="13" font-weight="650">€ 228.00</text>
    <path d="M1124 570h218" stroke="#e7eae6"/>
    <text x="1124" y="594" fill="#344239" font-size="14" font-weight="750">Total</text>
    <text x="1280" y="594" fill="#344239" font-size="14" font-weight="750">€ 1,428.00</text>
    <rect x="1124" y="616" width="218" height="40" rx="6" fill="#174b39"/>
    <text x="1138" y="641" fill="#fff" font-size="13" font-weight="650">Balance due</text>
    <text x="1260" y="641" fill="#fff" font-size="13" font-weight="750">€ 1,428.00</text>
    <text x="950" y="701" class="label">NOTES &amp; PAYMENT</text>
    <text x="950" y="726" class="muted">Thank you for your business.</text>
    <path d="M950 748h392" stroke="#e6e9e5"/>
    <text x="950" y="770" class="muted">My business</text>
  </g>
</svg>
